<svg xmlns="http://www.w3.org/2000/svg" width="776" height="497.333" version="1.0" viewBox="0 0 582 373">
  <path
    d="M74.2 6.9c-7.4 2.5-12.2 6.8-15.9 14L55 27.2V74H32.4c-13.6 0-23.3.4-24.5 1-2.2 1.2-2.6 6.2-.6 7.9.9.7 9.4 1.2 24.3 1.3l22.9.3v49l-23.4.5c-22 .5-23.4.6-24.6 2.5-1.6 2.5-.3 6.5 2.2 6.5 1 0 11.7.2 23.8.3l22 .2.5 78.5.5 78.5 2.3 4.7c2.8 5.6 7.8 10.3 14.1 13.1 3.7 1.7 7.4 2.2 19.6 2.6l15 .6.7 5.2c1.1 7.7 4.4 15.6 9.3 22 15 20.1 41.5 26.1 64.4 14.6 12-6 22.7-20.3 25.2-33.8.7-3.3 1.3-6.6 1.5-7.3.3-.9 20.9-1.2 98.9-1.2H405v2.8c0 8.6 6.8 22.8 14.6 30.4 16.1 15.8 38.6 19.3 59.2 9.2 12.4-6.1 23.7-21.3 26.3-35.7l1.2-6.5 22.6-.4c20.6-.3 23-.5 27.2-2.4 6.4-3 12.5-8.8 15.7-14.8l2.7-5.1.3-40.4c.3-38.6.2-40.8-1.8-47.3-1.7-5.6-6-12.8-23.2-38.6-36.1-54.1-55.1-81.5-59.6-86-2.4-2.5-7.6-5.9-12-8l-7.7-3.7-52.7-.3-52.7-.3-.3-23.2c-.3-21.7-.4-23.5-2.6-28.2-2.9-6.3-7.3-10.9-13.7-14.3l-5-2.7-132-.2C85.7 5.1 79.3 5.1 74.2 6.9m271.6 10.9c1.7 1.3 4.4 4 6 5.9l2.7 3.6.3 141.9.2 141.8H207.2l-2.1-6.8c-11.4-37.5-59.2-48.4-85.2-19.4-5.1 5.6-10.3 15.3-12 22l-1 4.3-15.3-.3c-14.9-.3-15.4-.4-18.8-3-2-1.5-4.7-4.5-6-6.5l-2.3-3.8-.3-76.8c-.2-67.7-.1-77 1.3-78.3 1.9-2 1.9-5.8 0-7.4-1.3-1.1-1.5-4.9-1.3-25.9l.3-24.6 24-.2c23-.3 24.1-.4 25.8-2.4 2.2-2.7 2.1-3.5-.3-5.9-1.9-1.9-3.3-2-26-2H64V53.2c0-11.4.5-22.4 1-24.4 1.4-5 5.5-9.7 10.5-11.9 3.8-1.8 9.6-1.9 135.5-1.6l131.5.2zm128.9 69c9.4 5 8 3.1 61.5 82.7 12.9 19.2 24 36 24.7 37.2l1.2 2.3H365V83.9l52.8.3c52.5.3 52.7.3 56.9 2.6m91.1 168.5c.1 21.9-.2 37.4-.8 39.6-1.4 5.4-6.1 11.5-10.6 13.7-3.4 1.7-6.6 1.9-26.6 2.2l-22.6.3-.7-3.9c-1.7-10.2-11.9-24.4-22.4-31.1-27.4-17.7-64.7-4.2-74.6 27l-2.3 7.4-20.1.3-20.1.2v-92l100.3.2 100.2.3zM174 281.6c15.6 7.4 24.8 22.9 23.8 40-1.5 23-24.1 41.3-46.3 37.6-16.7-2.8-28.6-13.1-33.6-29.3-4.4-14.1-.3-29.5 10.6-40.5 8.2-8.1 17.3-11.5 30-11.1 7.6.2 10 .7 15.5 3.3m295.3-1.2c17 6 27.5 22 26.5 40.4-.6 10.4-3.5 17.4-10.4 25-9.4 10.5-23.8 15.8-36.4 13.4-17.4-3.2-30-15.3-33.5-32-2-9.6-.2-21.6 4.3-29.2 3-4.8 11.7-13.2 16.4-15.6 9.9-5.1 22.2-5.8 33.1-2" />
</svg>