<svg xmlns="http://www.w3.org/2000/svg" width="970.667" height="866.667" version="1.0" viewBox="0 0 728 650">
  <path
    d="M199.5 8.1c-21 2.2-44.5 12.8-60.1 27.1-6 5.6-6.9 8.2-5 15.6 2.1 7.8 2 15.7-.2 20.5-1.1 2.4-10.3 12-25.6 26.7l-23.9 23.1-3.1-2.8c-1.7-1.6-6.1-5.6-9.7-9-6.9-6.4-11.1-8.2-16.6-6.8-1.8.4-10.9 8.7-25.5 23.3L7 148.5v5.5c.1 3 .6 6.5 1.3 7.7s21.7 23 46.7 48.4c51.3 52.1 52.2 52.8 60.7 48.1 2.6-1.4 21.8-19.1 40.9-37.7 4.9-4.7 6.9-10.4 5.5-15.3-.6-1.8-3.2-5.8-6-8.9s-5.1-6-5.1-6.4 1.8-2.3 4-4.2c7.4-6.3 17.1-7.2 24.8-2.3 4.1 2.6 37.2 35.9 81.1 81.6 15.6 16.2 30.8 32 33.7 35l5.4 5.4 3.5-3.4c1.9-1.9 3.5-4 3.5-4.8 0-1.7-25-28-77.6-81.8-30.9-31.5-39.3-39.6-44.1-42.1-14.8-7.9-28.6-5.6-41.9 7.1-8.8 8.4-8.5 11.2 2 21.6 3.1 3 5.6 5.9 5.6 6.6 0 .6-7.5 8.3-16.7 17-22 20.9-23.6 22.4-24.8 22.4s-89.7-89.7-90.9-92.2c-.8-1.6 1.8-4.7 19-21.9C48.5 123 58.2 114 59 114c.9 0 5.3 3.8 10 8.5 15.5 15.6 14.4 16 46.4-14.9 27-26.2 29.6-29.5 31.5-40.3.9-4.9.9-7.6-.4-13.4l-1.5-7.3 3.3-3.4c7.8-8.1 25-17.2 40.4-21.4 11.3-3 31.4-3 43.8 0 11.6 2.9 27.6 10.7 34.4 16.8l5.3 4.8-21 20.6c-19.3 18.9-21.1 21-23.2 26.5-3.2 8.7-3 15.5.7 23.5 1.7 3.6 4.8 8.3 6.9 10.5s25 25.6 50.8 52 52.2 53.4 58.8 60l11.8 11.9 4.2-4.2 4.2-4.2-18.5-18.7c-70.4-71.6-106.8-109.2-108.2-112-2.1-3.9-2.2-11.5-.3-15.2.8-1.5 11.6-12.7 24-24.8C284.2 48.1 285 47.2 285 43.5c0-3.4-.7-4.6-5.7-9.5-19.6-18.9-50.4-28.9-79.8-25.9" />
  <path
    d="M582.5 12.5c-27.1 4.4-53.1 19.4-69.7 40.3-11.5 14.4-18.5 29.1-23.5 49-2.4 9.4-2.7 12.7-2.8 27V145l-31 30.8C288.9 341 223.6 405.3 201.5 426c-14.3 13.4-32.3 30.2-40 37.5-7.7 7.2-20.7 19.4-29 27-37.1 34.3-54.6 50.9-58.9 55.5-7.4 8.4-11.3 21.5-9.6 32.5 2.2 13.8 4.7 17.6 24.3 37.4 16.3 16.5 22.3 20.8 33.1 23.7 11.6 3.1 25.3.9 35.8-5.7 3.2-1.9 31-28.8 68.8-66.4C394.9 399.8 513 283.1 547.3 250l9.7-9.4 4.3 1.2c29.1 8.5 42.8 9.6 65.5 5.6 24.8-4.4 50.6-19.8 67-40 9.2-11.3 18.2-29 21.9-42.9 2.1-8.3 2.6-12.3 2.7-23.5l.1-13.5-5.6-11.6c-6-12.3-8.4-14.9-13.6-14.9-3.3 0-8.7 4.5-60.2 50.7-11.8 10.5-12.5 10.7-25 7.8-22.9-5.4-38-25.3-38.1-50.2v-6.1l28.6-29.9c15.8-16.4 29.5-30.6 30.5-31.6 2.4-2.2 3.3-5.9 2.4-9.4-1-4-15.1-18.1-19.4-19.3-6.3-1.8-25.8-2.1-35.6-.5m30 11.1c3.3.4 13 9.4 12.4 11.2-.2.6-13.2 14.4-28.9 30.7s-29.1 30.8-29.9 32.3c-2 3.7-1.7 20 .4 28.2 5.2 20.1 19.1 35.7 38.3 42.8 8.7 3.2 25.2 4.3 29.8 1.9 1.6-.8 8.3-6.4 14.9-12.4 6.6-5.9 20.4-18.4 30.7-27.6 21.4-19.2 18.7-18.6 24.9-5.4 3.1 6.8 3.2 7.1 2.5 17.3-1.9 29.6-18.8 59.6-43.1 76.3-28.4 19.7-62.7 24.4-95.6 13.1-9.3-3.2-14.1-3.7-17.7-1.7-2.7 1.6-45 42.4-97.2 94.1-69.7 69-259.7 257.4-280.7 278.3-24.6 24.6-26.4 25.8-40.3 25.8-15 0-18.4-2-37.5-21.8-18.4-19-20-21.7-20-33.7 0-13.3.8-14.3 33.8-44.7 73-67 116-107.7 169.2-160.2 41.4-40.9 138.7-137.4 197.1-195.6 24.7-24.6 24-23.4 22.3-36.1-.5-4.4-.5-10.6.2-16.9 2.8-26.1 12.3-47.6 28.8-64.9 18.3-19.1 38.9-28.8 67.6-31.9 3.2-.4 13 .1 18 .9" />
  <path
    d="M467.6 351.9c-2.1 2.2-3.7 4.4-3.5 5s8.3 9 18 18.8c9.6 9.8 35.3 36 56.9 58.3 21.7 22.3 57.5 58.9 79.5 81.5 25.2 25.7 40.8 42.5 42 45 1 2.2 2.1 6.7 2.3 10.1.7 10.1-1.8 14.2-16 27.1-21 18.9-22.6 20.1-28.7 21.4-9.4 1.9-20.4-1.9-26.6-9.3-2.7-3.2-52.2-55.5-92.5-97.8-11.3-11.8-31.9-33.7-45.9-48.5-14-14.9-30.4-32.1-36.4-38.3l-11.1-11.3-4 4-3.9 3.9 6.9 7.5c3.8 4.1 33.7 35.7 66.4 70.2 32.7 34.6 68 71.9 78.4 82.9 32.7 34.8 40.2 42.1 46 44.9 7.3 3.6 14.1 5 20.6 4.2 10.8-1.4 14.9-3.7 30.2-17.4 18.8-16.8 23.1-21.5 25.6-28.2 5.9-15.8 2.7-29.3-10.1-42.9-5.4-5.7-32.9-33.9-108.8-111.5-11.8-12.1-35-35.8-51.4-52.8-16.4-16.9-29.9-30.7-30-30.7z" />
</svg>