<svg xmlns="http://www.w3.org/2000/svg" width="737.333" height="737.333" version="1.0" viewBox="0 0 553 553">
  <path
    d="M261 7.4c-27.6 3.7-37.3 6.9-80 26.4-9.6 4.4-22 9.9-27.5 12.2-15.4 6.5-31.2 14.9-38.3 20.3C98.5 78.8 90.3 87.8 67.7 118c-8 10.7-18.5 24.2-23.3 30-19 23-25.2 37.2-29.4 68.2-2.4 16.9-3.7 24-7.5 40.3-5.5 23.9-5.3 38.6.9 61.6 1.9 6.8 5 18.4 7 25.6 2 7.3 5.2 19.1 7.1 26.3 6.6 25 12.2 35 30.7 54.6 12.4 13.1 20.1 22.4 29.3 34.9 10.4 14.3 19.5 24.5 26.8 29.9 8.7 6.5 14 9.2 27.7 14.1 13.4 4.8 17.8 7 32.5 16.5 26.9 17.3 31.3 18.7 61 20 14.4.6 24.2 1.6 35 3.6 29.5 5.4 41.6 3.8 80-10.6 7.2-2.7 20.4-7.4 29.5-10.6 9.1-3.1 20.1-7.4 24.5-9.6 27.3-13.6 53.9-34.6 77.8-61.3 14.3-16 37.9-52.8 47.1-73.4 5.4-12 6.8-16.3 10.6-32.6 1.7-7.2 4.8-18.9 7-26 2.1-7.2 4.4-15.9 5.1-19.3 3.3-17.2-4-67-14.2-97.2-3.4-10.3-14.3-35.6-23.3-54.2-11.7-24.2-16.8-30.2-56.6-66.1-30.3-27.4-38.7-33.8-54.2-41.6-12.7-6.4-76.6-28.4-93.3-32.1-11.9-2.6-31-3.3-44.5-1.6m48 16.4c17 4.5 69.9 22.6 80.5 27.6 16.5 7.7 23.7 13.3 60.3 46.4 34.5 31.3 38.6 36.6 53.1 67.8 19.3 41.7 25.2 61.5 30.6 102.9 2.7 21.1 2 28.4-4.9 50.6-1.9 6.3-5.1 17.8-7 25.6-4 16.2-7.6 25.8-14.6 39-5.7 10.7-17.9 30.3-25.2 40.6-16.4 23.2-43.8 49.3-68.3 65.4-16.4 10.7-23.2 13.5-84.6 35.3-25.5 9.1-36.1 9.9-64.6 5-12.7-2.2-20.7-3-29.3-3-24.7 0-33.2-2.5-55.6-16.5-17.9-11.2-24.2-14.4-38.3-19.7-20.6-7.6-28.4-14.2-50.2-42.3-6.8-8.8-17.3-21.3-23.4-27.9-23-24.7-26.8-31.5-34-60.6-1.4-5.8-5-18.8-8-29-10.7-36.8-11.2-45.8-4.6-74.2 3.7-16.2 5-23.2 8.2-45.8 2.1-15.2 6.5-27.8 13.2-38.2 1.9-2.9 8.8-11.9 15.4-19.9 6.5-8 17.9-22.6 25.3-32.5 20.4-27.3 37-43.3 54.5-52.2 7.5-3.9 65.3-29.9 79.7-35.9 12.3-5.1 29.6-9.7 41.9-11.2 4.6-.5 15.2-.8 23.4-.6 12.9.2 16.6.7 26.5 3.3" />
  <path
    d="M270 48.6c-1.4.3-10.1 1.9-19.5 3.5-44.4 7.8-52.8 10.8-79.6 28.6-7.4 4.9-18.9 12.2-25.7 16.3-23.7 14.4-39.5 28.2-54.3 47.6-25.3 33.1-39.7 66.9-45.4 106.7-2.3 16-1.7 46.4 1.4 62.3 4.5 24.1 13.3 48.2 23.6 65.3 11.4 18.8 32.1 46.2 46.5 61.4 26.3 28 70 52.7 111.8 63.2 40.7 10.3 68.6 8.4 107.9-7.4 59.4-23.7 64.5-26.3 84.3-42.2 43.7-35.1 74.7-89 85.7-148.9 1.2-6.9 1.7-14.9 1.7-29.5.1-17.2-.3-21.6-2.3-31.5-3.8-18.7-11.1-38.2-19.9-53.7-14.2-25-27.2-46.8-31.3-52.9-5.8-8.3-19.7-22.1-28.9-28.6-3.6-2.6-12.8-8.4-20.5-13.1-7.7-4.6-20.3-12.5-28-17.7-22.1-14.6-37-21.3-59.5-26.7-8.7-2.1-13.5-2.5-28-2.8-9.6-.2-18.6-.1-20 .1m46 9.8c23.1 5.8 36.4 11.8 58 26.2 7.4 5 20 12.9 28 17.6 31.2 18.5 41.4 28.5 58.3 57.8 4.6 8 11 19 14.2 24.5 22.6 38.6 30.8 73.4 26.1 110.5-3.9 30.3-13.4 58.5-29.6 87.5-16.3 29.2-31.6 47.5-55.7 66.7-16.1 12.9-23.1 16.6-60.3 31.8-45.1 18.4-56.3 21.5-79 21.3-31.7-.3-61.2-7.9-93.4-24-33-16.6-53.7-33.3-77.1-62.5-21.9-27.3-35.6-50.4-43.5-73.5-20.3-58.8-11.7-124 23.3-177 17.8-26.8 33.7-43 56.8-57.5 5.5-3.4 16.8-10.7 25-16.1 33.4-21.7 43.2-25.6 77.4-31.2 5.5-.9 14.5-2.5 20-3.6 14.6-2.7 37-2.1 51.5 1.5" />
  <path
    d="M260.9 82.5c-30.7 4.8-58.5 16.6-92.4 39-30.2 20.1-50.2 39.7-65.6 64.5-6.7 10.8-11 20.3-15.9 34.9-15.8 47.4-9.9 97.3 18.2 153.6 17.8 35.6 37.1 56.8 65.1 71.5 17.9 9.5 55.4 22 75.7 25.3 26.9 4.5 43.5 3 78.2-6.7 43.3-12.2 63.8-23.4 87.4-47.8 30.7-31.8 48.6-62.1 55.9-94.8 9.5-42.5 3.8-78.8-20-126.3-21.2-42.3-47.8-71-84.9-91.6-20.9-11.6-39-18.3-58-21.6-10.8-1.8-31.8-1.8-43.7 0m46.6 8c35.5 7.3 75.1 30.3 99.6 57.9 30.1 33.8 52.9 83 56.9 123 1.8 17.6-.6 40.4-6.1 59.1-8 27-26.9 56.6-52.9 82.6-19.6 19.7-36.4 29.7-65.5 39.2-53 17.4-76.4 18.4-119.4 5.2-54-16.6-76.9-32.5-98.5-68.5-32.7-54.2-43.2-109.2-30.1-157.7 9.8-36.1 32.5-67.9 67.1-93.9 27.8-20.9 60.1-37.5 85.6-44 21.9-5.5 45.2-6.6 63.3-2.9" />
  <path
    d="M264 119.7c-21.4 2.3-46.9 11.2-67.3 23.4-15.9 9.6-24.1 16.1-38.8 30.8-39.5 39.6-51.2 82.5-38 139.3 12.1 51.5 37.2 85.4 78.8 106.2 13.8 6.9 25.4 11 39.5 13.8 15.1 3 46.8 3.2 62.3.4 26.3-4.8 55-16.6 72.6-29.9 39.4-30 60.4-77.7 56-126.9-2.9-31.5-10.7-56.3-24.8-78.6-7.8-12.3-21.3-29.2-31.8-39.8-26-26.3-58.1-39.7-94-39.2-6 .1-12.6.3-14.5.5m27.9 7.3c31.5 3.3 60.4 18.6 81.8 43.3 28.4 32.8 40.2 56.2 46.3 92.3 4.2 24.3 2.8 47.7-4.1 68.3-13.8 41.5-41.7 70.3-83.6 86.5-20.1 7.8-39.2 11.1-63.8 11-26.2-.1-45.4-4.6-67.7-16.1-34-17.3-55.3-43-68.6-82.8-6.6-19.6-9.4-34.5-9.9-53-.6-18.1.7-27.6 5.8-42.9 16.5-49.6 72.3-95.7 126.9-105 16-2.7 23-3 36.9-1.6" />
  <path
    d="M260.6 156.1c-42.3 5.5-84.3 36.4-102 75.1-12.8 28.1-13.9 60.5-3.1 90.8 9.8 27.4 34 54.6 60.5 68 17.4 8.8 31.6 11.6 54.4 10.7 23.3-.9 42.4-5.8 65.4-16.8 27.1-12.8 45.1-33 54.5-61.1 10.1-30.2 6.9-65-8.3-90.8-6.2-10.6-14.8-20.7-31.5-37.6-18.4-18.5-25.6-24.2-38.6-30.3-16.1-7.7-32.9-10.3-51.3-8m32.5 9c17.7 4.4 31.8 13.8 52.5 34.9 22.4 22.7 29.9 32.9 36.4 49.2 5.1 12.9 6.5 21.4 6.4 38.8-.1 13.5-.4 16.7-2.8 25.4-8.1 29.8-26.4 51.8-53.3 64.3-25.2 11.6-50.2 17.1-73.3 16-25.3-1.2-45.9-10.3-65.7-29.1-26.2-24.7-40-57.5-37.9-89.8 1.1-17.1 3.9-27.6 11.7-43.3 15.8-32.3 49.4-58.4 85.3-66.5 11.8-2.7 29.7-2.6 40.7.1" />
  <path
    d="M262 188.7c-33.5 5-60.4 26.7-74.2 59.5-9.8 23.3-7.3 51.3 6.8 77.5 8.8 16.2 20.9 28.4 34.9 35.3 13 6.3 18.4 7.3 37.5 6.7 15.1-.4 17.3-.7 26-3.5 35.2-11.6 60.2-36 69.1-67.7 3-10.4 3.2-27.1.5-35.9-6.2-20.8-25.1-44.5-47-59-9.6-6.5-17.2-9.6-28.9-12-7-1.5-18.5-1.9-24.7-.9m27.5 8.8c29.3 7.6 61.7 41.6 67.1 70.6 3.2 16.6-1.9 35.2-14.1 52.4-5 7-16.9 18.7-23.8 23.4S296.8 355.5 288 358c-9.1 2.7-30.4 3.8-39.5 2.1-8.3-1.5-23.2-9.1-29.9-15.2-22.5-20.5-34.8-57.8-27.6-83.4 2.9-10.2 11-25.9 18-34.7 13.5-16.9 33.2-27.9 55.5-31.2 5.1-.7 18.7.3 25 1.9" />
  <path
    d="M254 221c-13.9 3.7-24.1 10.5-32.1 21-17.4 23.2-15 61.7 5.1 82 10.2 10.2 22.8 15 40.1 15 37.7 0 65-27.9 65-66.5 0-25.5-13.7-42.9-39.9-50.7-10.3-3-28.6-3.4-38.2-.8m30.8 6.6c17.2 3.5 29.5 12.1 35.9 25.1 3.3 6.7 3.8 8.6 4.1 16.8 1 21.4-9.4 43-25.7 53.4-7.4 4.8-18.3 8.1-28.6 8.8-31.5 2-52.6-18.8-52.9-52.2 0-5 .6-11.5 1.3-14.5 6.8-27.8 34.9-43.8 65.9-37.4" />
  <path
    d="M257.6 248.6c-3.5 1.1-6.5 3.1-10.6 7.2-4.8 4.9-5.9 6.7-7.5 12.4-3.3 12.5.1 27.2 8.3 35.1 9 8.8 23 9.6 35.7 2.2 13.6-8 21.4-26 17.4-40.2-1.9-6.8-9.8-14.6-16.9-16.7-6.7-2-19.9-2-26.4 0m23.2 6.9c13.1 3.9 17.5 17.3 10.2 31.5-3.2 6.2-6.7 9.7-13.2 12.9-11.4 5.8-22.4 3.3-28.2-6.2-2.5-4.1-3-6.1-3.4-13.2-.4-7.3-.1-9 2.1-13.7 2.6-5.8 6.1-9 12.4-11.3 5.1-1.8 13.8-1.8 20.1 0" />
</svg>