<svg fill="#ffffff" xmlns="http://www.w3.org/2000/svg" viewBox="0 0 512 512" width="512" height="512" role="img" aria-labelledby="wrydeco-stacked-title"><title>WRYDECO</title>
  <title id="wrydeco-stacked-title">WRYDECO Brand Lockup (Stacked)</title>
  <g id="symbol" transform="translate(148, 64) scale(0.84)" fill="#ffffff">
    <g id="arbor-symbol">
    <!-- Base Letter W (Grounded Roots & Lower Canopy) -->
    <path d="
      M 36 84
      H 66
      L 96 172
      L 118 106
      H 138
      L 160 172
      L 190 84
      H 220
      L 180 204
      H 150
      L 128 138
      L 106 204
      H 76
      Z
    "/>
    <!-- Central Rising Trunk & Cantilevered Tree Shelf Branches -->
    <rect x="119" y="32" width="18" height="80"/>
    <!-- Top Canopy / Upper Shelf (cantilevered at 45°) -->
    <path d="M 128 32 L 84 76 L 96 88 L 128 56 L 160 88 L 172 76 Z"/>
    <!-- Mid Tier Branches / Shelves -->
    <path d="M 128 68 L 102 94 L 112 104 L 128 88 L 144 104 L 154 94 Z"/>
  </g>
  </g>
  <g id="wordmark" fill="#ffffff">
    <path d="M 56 344 H 63.5 L 75 380.5 L 80 357 H 86 L 91 380.5 L 102.5 344 H 110 L 94 386 H 88 L 83 365 L 78 386 H 72 Z"/><path fill-rule="evenodd" d="M 136 344 H 156 A 12 12 0 0 1 156 368 H 142.0 V 386 H 136 Z M 142.0 350.0 H 156 A 6.0 6.0 0 0 1 156 362.0 H 142.0 Z M 152 366 L 172 386 H 164 L 148 368 Z"/><path d="M 200 344 H 207.5 L 220 367 L 232.5 344 H 240 L 223.2 370 V 386 H 216.8 V 370 Z"/><path fill-rule="evenodd" d="M 270 344 H 288 A 22 22 0 0 1 288 386 H 270 Z M 276.0 350.0 H 288 A 16.0 16.0 0 0 1 288 380.0 H 276.0 Z"/><path d="M 338 344 H 370 V 350.0 H 344.0 V 361.8 H 364 V 368.2 H 344.0 V 380.0 H 370 V 386 H 338 Z"/><path d="M 435.6 349.4 A 22 22 0 1 0 435.6 380.6 L 431.3 376.3 A 16.0 16.0 0 1 1 431.3 353.7 Z"/><path fill-rule="evenodd" d="M 491 344 A 22 22 0 1 1 490.99 344 Z M 491 350.0 A 16.0 16.0 0 1 0 491.01 350.0 Z"/>
  </g>
</svg>